<svg width="124" height="58" viewBox="0 0 124 58" fill="none" xmlns="http://www.w3.org/2000/svg">
<g clip-path="url(#clip0_234_576)">
<path d="M96.3967 30.106H27.6032C27.0311 30.106 26.6021 29.678 26.6021 29.1072V1.71219C26.6021 0.713412 27.4602 0 28.3183 0H95.6816C96.6828 0 97.3979 0.856095 97.3979 1.71219V28.9645C97.3979 29.678 96.9688 30.106 96.3967 30.106ZM28.7474 27.9658H95.3956V2.14024H28.7474V27.9658Z" fill="#7A7979"/>
<path d="M38.6159 14.6962H31.6078C31.0357 14.6962 30.4636 14.2682 30.4636 13.5548V6.56333C30.4636 5.9926 30.8927 5.42188 31.6078 5.42188H38.6159C39.188 5.42188 39.76 5.84992 39.76 6.56333V13.5548C39.76 14.2682 39.331 14.6962 38.6159 14.6962ZM32.752 12.556H37.6147V7.70479H32.752V12.556Z" fill="#7A7979"/>
<path d="M96.3967 49.5109H27.6032C27.0311 49.5109 26.459 49.0829 26.459 48.3695V29.6781C26.459 29.1073 26.888 28.5366 27.6032 28.5366C28.3183 28.5366 28.7473 28.9647 28.7473 29.6781V47.3707H95.3955V29.6781C95.3955 29.1073 95.8246 28.5366 96.5397 28.5366C97.2548 28.5366 97.6839 28.9647 97.6839 29.6781V48.5122C97.5409 49.0829 96.9688 49.5109 96.3967 49.5109Z" fill="#7A7979"/>
<path d="M112.701 44.8023H96.3969C95.8248 44.8023 95.2527 44.3743 95.2527 43.6608V1.14146C95.3957 0.428048 95.8248 0 96.3969 0H113.989C114.704 0 115.276 0.57073 115.276 1.28414V42.0913C115.419 43.6608 114.132 44.8023 112.701 44.8023ZM97.541 42.6621H112.701C112.987 42.6621 113.273 42.3767 113.273 42.0913V2.14024H97.541V42.6621Z" fill="#7A7979"/>
<path d="M91.8202 14.6962H84.8121C84.2401 14.6962 83.668 14.2682 83.668 13.5548V6.56333C83.668 5.9926 84.097 5.42188 84.8121 5.42188H91.8202C92.3923 5.42188 92.9644 5.84992 92.9644 6.56333V13.5548C92.8214 14.2682 92.3923 14.6962 91.8202 14.6962ZM85.8133 12.556H90.676V7.70479H85.8133V12.556Z" fill="#7A7979"/>
<path d="M108.84 14.6962H101.832C101.26 14.6962 100.688 14.2682 100.688 13.5548V6.56333C100.688 5.9926 101.117 5.42188 101.832 5.42188H108.84C109.412 5.42188 109.984 5.84992 109.984 6.56333V13.5548C109.984 14.2682 109.412 14.6962 108.84 14.6962ZM102.833 12.556H107.696V7.70479H102.833V12.556Z" fill="#7A7979"/>
<path d="M108.84 27.8232H101.832C101.26 27.8232 100.688 27.3951 100.688 26.6817V19.6903C100.688 19.1196 101.117 18.5488 101.832 18.5488H108.84C109.412 18.5488 109.984 18.9769 109.984 19.6903V26.6817C109.984 27.3951 109.412 27.8232 108.84 27.8232ZM102.833 25.6829H107.696V20.8317H102.833V25.6829Z" fill="#7A7979"/>
<path d="M38.6159 41.3779H31.6078C31.0357 41.3779 30.4636 40.9498 30.4636 40.2364V33.245C30.4636 32.6742 30.8927 32.1035 31.6078 32.1035H38.6159C39.188 32.1035 39.76 32.5316 39.76 33.245V40.2364C39.76 40.9498 39.331 41.3779 38.6159 41.3779ZM32.752 39.2376H37.6147V34.3864H32.752V39.2376Z" fill="#7A7979"/>
<path d="M108.84 41.0927H101.832C101.26 41.0927 100.688 40.6647 100.688 39.9513V32.9598C100.688 32.3891 101.117 31.8184 101.832 31.8184H108.84C109.412 31.8184 109.984 32.2464 109.984 32.9598V39.9513C109.984 40.522 109.412 41.0927 108.84 41.0927ZM102.833 38.9525H107.696V34.1013H102.833V38.9525Z" fill="#7A7979"/>
<path d="M51.9169 14.6962H44.9088C44.3367 14.6962 43.7646 14.2682 43.7646 13.5548V6.56333C43.7646 5.9926 44.1937 5.42188 44.9088 5.42188H51.9169C52.489 5.42188 53.0611 5.84992 53.0611 6.56333V13.5548C53.0611 14.2682 52.489 14.6962 51.9169 14.6962ZM45.91 12.556H50.7727V7.70479H45.91V12.556Z" fill="#7A7979"/>
<path d="M65.2179 14.6962H58.2098C57.6378 14.6962 57.0657 14.2682 57.0657 13.5548V6.56333C57.0657 5.9926 57.4947 5.42188 58.2098 5.42188H65.2179C65.79 5.42188 66.3621 5.84992 66.3621 6.56333V13.5548C66.3621 14.2682 65.79 14.6962 65.2179 14.6962ZM59.211 12.556H64.0737V7.70479H59.211V12.556Z" fill="#7A7979"/>
<path d="M78.5189 14.6962H71.5109C70.9388 14.6962 70.3667 14.2682 70.3667 13.5548V6.56333C70.3667 5.9926 70.7958 5.42188 71.5109 5.42188H78.5189C79.091 5.42188 79.6631 5.84992 79.6631 6.56333V13.5548C79.5201 14.2682 79.091 14.6962 78.5189 14.6962ZM72.512 12.556H77.3748V7.70479H72.512V12.556Z" fill="#7A7979"/>
<path d="M38.6159 26.1108H31.6078C31.0357 26.1108 30.4636 25.6827 30.4636 24.9693V17.9779C30.4636 17.4072 30.8927 16.8364 31.6078 16.8364H38.6159C39.188 16.8364 39.76 17.2645 39.76 17.9779V24.9693C39.76 25.5401 39.331 26.1108 38.6159 26.1108ZM32.752 23.9705H37.6147V19.1193H32.752V23.9705Z" fill="#7A7979"/>
<path d="M91.8202 26.1108H84.8121C84.2401 26.1108 83.668 25.6827 83.668 24.9693V17.9779C83.668 17.4072 84.097 16.8364 84.8121 16.8364H91.8202C92.3923 16.8364 92.9644 17.2645 92.9644 17.9779V24.9693C92.8214 25.5401 92.3923 26.1108 91.8202 26.1108ZM85.8133 23.9705H90.676V19.1193H85.8133V23.9705Z" fill="#7A7979"/>
<path d="M51.9169 26.1108H44.9088C44.3367 26.1108 43.7646 25.6827 43.7646 24.9693V17.9779C43.7646 17.4072 44.1937 16.8364 44.9088 16.8364H51.9169C52.489 16.8364 53.0611 17.2645 53.0611 17.9779V24.9693C53.0611 25.5401 52.489 26.1108 51.9169 26.1108ZM45.91 23.9705H50.7727V19.1193H45.91V23.9705Z" fill="#7A7979"/>
<path d="M51.3449 41.3779H44.3368C43.7647 41.3779 43.1926 40.9498 43.1926 40.2364V33.245C43.1926 32.6742 43.6217 32.1035 44.3368 32.1035H51.3449C51.917 32.1035 52.4891 32.5316 52.4891 33.245V40.2364C52.4891 40.9498 51.917 41.3779 51.3449 41.3779ZM45.481 39.2376H50.3437V34.3864H45.481V39.2376Z" fill="#7A7979"/>
<path d="M79.6632 41.3779H72.6552C72.0831 41.3779 71.511 40.9498 71.511 40.2364V33.245C71.511 32.6742 71.9401 32.1035 72.6552 32.1035H79.6632C80.2353 32.1035 80.8074 32.5316 80.8074 33.245V40.2364C80.8074 40.9498 80.2353 41.3779 79.6632 41.3779ZM73.6563 39.2376H78.6621V34.3864H73.7993V39.2376H73.6563Z" fill="#7A7979"/>
<path d="M91.8202 41.3779H84.8121C84.2401 41.3779 83.668 40.9498 83.668 40.2364V33.245C83.668 32.6742 84.097 32.1035 84.8121 32.1035H91.8202C92.3923 32.1035 92.9644 32.5316 92.9644 33.245V40.2364C92.8214 40.9498 92.3923 41.3779 91.8202 41.3779ZM85.8133 39.2376H90.676V34.3864H85.8133V39.2376Z" fill="#7A7979"/>
<path d="M65.2179 26.1108H58.2098C57.6378 26.1108 57.0657 25.6827 57.0657 24.9693V17.9779C57.0657 17.4072 57.4947 16.8364 58.2098 16.8364H65.2179C65.79 16.8364 66.3621 17.2645 66.3621 17.9779V24.9693C66.3621 25.5401 65.79 26.1108 65.2179 26.1108ZM59.211 23.9705H64.0737V19.1193H59.211V23.9705Z" fill="#7A7979"/>
<path d="M78.5189 26.1108H71.5109C70.9388 26.1108 70.3667 25.6827 70.3667 24.9693V17.9779C70.3667 17.4072 70.7958 16.8364 71.5109 16.8364H78.5189C79.091 16.8364 79.6631 17.2645 79.6631 17.9779V24.9693C79.5201 25.5401 79.091 26.1108 78.5189 26.1108ZM72.512 23.9705H77.3748V19.1193H72.512V23.9705Z" fill="#7A7979"/>
<path d="M68.2216 49.5108H55.7787C55.2066 49.5108 54.6345 49.0828 54.6345 48.3694V33.8158C54.6345 33.245 55.0636 32.6743 55.7787 32.6743H68.2216C68.7937 32.6743 69.3658 33.1024 69.3658 33.8158V48.5121C69.3658 49.0828 68.7937 49.5108 68.2216 49.5108ZM56.9229 47.3706H67.2204V34.9572H56.9229V47.3706Z" fill="#7A7979"/>
<path d="M27.6033 44.8023H11.4418C10.0116 44.8023 8.72437 43.6608 8.72437 42.0913V1.28414C8.72437 0.57073 9.29645 0 10.0116 0H27.6033C28.1753 0 28.7474 0.428048 28.7474 1.14146V43.8035C28.7474 44.3743 28.1753 44.8023 27.6033 44.8023ZM10.8697 2.14024V42.234C10.8697 42.5194 11.1557 42.8047 11.4418 42.8047H26.6021V2.14024H10.8697Z" fill="#7A7979"/>
<path d="M22.1684 14.6962H15.1603C14.5882 14.6962 14.0161 14.2682 14.0161 13.5548V6.56333C14.0161 5.9926 14.4452 5.42188 15.1603 5.42188H22.1684C22.7405 5.42188 23.3125 5.84992 23.3125 6.56333V13.5548C23.3125 14.2682 22.7405 14.6962 22.1684 14.6962ZM16.3045 12.556H21.1672V7.70479H16.3045V12.556Z" fill="#7A7979"/>
<path d="M22.1684 27.8232H15.1603C14.5882 27.8232 14.0161 27.3951 14.0161 26.6817V19.6903C14.0161 19.1196 14.4452 18.5488 15.1603 18.5488H22.1684C22.7405 18.5488 23.3125 18.9769 23.3125 19.6903V26.6817C23.3125 27.3951 22.7405 27.8232 22.1684 27.8232ZM16.3045 25.6829H21.1672V20.8317H16.3045V25.6829Z" fill="#7A7979"/>
<path d="M22.1684 41.0927H15.1603C14.5882 41.0927 14.0161 40.6647 14.0161 39.9513V32.9598C14.0161 32.3891 14.4452 31.8184 15.1603 31.8184H22.1684C22.7405 31.8184 23.3125 32.2464 23.3125 32.9598V39.9513C23.3125 40.522 22.7405 41.0927 22.1684 41.0927ZM16.3045 38.9525H21.1672V34.1013H16.3045V38.9525Z" fill="#7A7979"/>
<path d="M122.999 49.5107H1.00115C0.429066 49.5107 0 49.0827 0 48.512C0 47.9412 0.429066 47.5132 1.00115 47.5132H122.999C123.571 47.5132 124 47.9412 124 48.512C124 49.0827 123.571 49.5107 122.999 49.5107Z" fill="#7A7979"/>
<path d="M82.9526 57.7863H41.0473C40.4752 57.7863 39.9031 57.3583 39.9031 56.6449C39.9031 55.9315 40.3321 55.5034 41.0473 55.5034H82.9526C83.5247 55.5034 84.0968 55.9315 84.0968 56.6449C84.0968 57.3583 83.5247 57.7863 82.9526 57.7863Z" fill="#7A7979"/>
</g>
<defs>
<clipPath id="clip0_234_576">
<rect width="124" height="57.7864" fill="white"/>
</clipPath>
</defs>
</svg>
