<svg width="65" height="58" viewBox="0 0 65 58" fill="none" xmlns="http://www.w3.org/2000/svg">
<g clip-path="url(#clip0_234_568)">
<path d="M32.2908 57.9582C20.9358 57.9582 10.527 51.2161 5.79573 40.8074C5.55917 40.2159 5.79573 39.5063 6.38714 39.2697C6.97855 39.0331 7.68823 39.2697 7.9248 39.8611C12.3012 49.4419 21.7637 55.5925 32.2908 55.5925C46.9577 55.5925 58.9041 43.6461 58.9041 28.9792C58.9041 28.2695 59.3773 27.7964 60.087 27.7964C60.7966 27.7964 61.2698 28.2695 61.2698 28.9792C61.2698 44.9472 48.2588 57.9582 32.2908 57.9582Z" fill="#7A7979"/>
<path d="M4.49458 30.1618C3.78489 30.1618 3.31177 29.6887 3.31177 28.979C3.31177 13.011 16.3227 0 32.2907 0C44.4737 0 55.3556 7.6883 59.4955 19.0433C59.7321 19.6347 59.3772 20.3444 58.7858 20.581C58.1944 20.8175 57.4847 20.4627 57.2481 19.8713C53.4631 9.34424 43.4092 2.36563 32.2907 2.36563C17.6238 2.36563 5.6774 14.3121 5.6774 28.979C5.6774 29.6887 5.08599 30.1618 4.49458 30.1618Z" fill="#7A7979"/>
<path d="M32.291 47.904C31.5813 47.904 31.1082 47.4309 31.1082 46.7212V11.4733C31.1082 10.7637 31.5813 10.2905 32.291 10.2905C33.0007 10.2905 33.4738 10.7637 33.4738 11.4733V46.7212C33.4738 47.4309 33.0007 47.904 32.291 47.904Z" fill="#7A7979"/>
<path d="M1.1828 25.4307H7.92485C8.8711 25.4307 9.34422 26.3769 8.8711 27.2049L5.6775 32.5276C5.20437 33.2372 4.25812 33.2372 3.78499 32.5276L0.236545 27.2049C-0.354863 26.4952 0.236545 25.4307 1.1828 25.4307Z" fill="#7A7979"/>
<path d="M63.5172 33.1189H56.7752C55.8289 33.1189 55.3558 32.1727 55.8289 31.3447L59.0225 26.022C59.4956 25.3123 60.4419 25.3123 60.915 26.022L64.4635 31.3447C64.9366 32.1727 64.4635 33.1189 63.5172 33.1189Z" fill="#7A7979"/>
<path d="M32.1726 43.2909C25.9037 43.2909 22.7101 38.323 22.4735 38.0865C22.1187 37.4951 22.2369 36.7854 22.8283 36.4305C23.4198 36.0757 24.1294 36.194 24.4843 36.7854C24.6026 36.9037 27.2048 40.807 32.1726 40.807C36.9039 40.807 40.2157 38.6779 40.2157 35.6026C40.2157 34.3015 39.506 33.3552 37.4953 32.2907C35.2479 31.1079 32.0543 30.0433 29.4521 29.2154C28.3876 28.8605 27.4413 28.5057 26.7316 28.2691C21.6455 26.3766 21.7638 23.183 21.8821 21.1722C22.1187 18.4517 25.4305 14.4302 32.0543 14.4302C38.7964 14.4302 41.7534 19.398 41.8717 19.6346C42.2265 20.226 41.99 20.9357 41.3985 21.2905C40.8071 21.6453 40.0975 21.4088 39.7426 20.8174C39.6243 20.6991 37.377 16.7958 32.0543 16.7958C26.3768 16.7958 24.2477 20.1077 24.2477 21.2905C24.1294 23.0647 24.0112 24.7207 27.5596 26.0218C28.2693 26.2583 29.2156 26.6132 30.2801 26.968C32.8823 27.796 36.1942 28.9788 38.6781 30.2799C40.6889 31.3444 42.6996 32.7638 42.6996 35.6026C42.6996 40.0973 38.3232 43.2909 32.1726 43.2909Z" fill="#7A7979"/>
</g>
<defs>
<clipPath id="clip0_234_568">
<rect width="64.7" height="57.9579" fill="white"/>
</clipPath>
</defs>
</svg>
