<svg width="58" height="60" viewBox="0 0 58 60" fill="none" xmlns="http://www.w3.org/2000/svg">
<g clip-path="url(#clip0_234_633)">
<path d="M14.5644 52.3289C14.3067 53.7467 14.4356 54.9067 14.4356 56.0667C14.4356 57.0978 14.0489 57.7422 13.2756 58.2578C8.89333 61.3511 2.44889 59.5467 0.515556 54.52C0.257778 53.8756 0.128889 53.1022 0 52.3289C0 51.5556 0 50.9111 0 50.2667C0 36.7333 0 23.2 0 9.66667C0 9.02222 0 8.24889 0 7.60445C0.257778 3.60889 3.73778 0.257778 7.60444 0C8.24889 0 8.76445 0 9.40889 0C24.7467 0 39.9556 0 55.2933 0C55.9378 0 56.4533 0 57.0978 0.128889C57.6133 0.128889 58 0.515556 58 1.03111C58 1.54667 58 1.93333 58 2.44889C58 18.3022 58 34.1556 58 49.88C58 52.2 58 52.3289 55.68 52.3289C42.7911 52.3289 29.9022 52.3289 17.0133 52.3289C16.24 52.3289 15.4667 52.3289 14.5644 52.3289ZM55.68 50.2667C55.8089 50.0089 55.9378 49.88 55.9378 49.7511C55.9378 49.2356 55.9378 48.72 55.9378 48.0756C55.9378 32.9956 55.9378 17.7867 55.9378 2.70667V2.57778C55.9378 2.57778 55.8089 2.44889 55.68 2.32C55.0356 2.06222 54.2622 2.19111 53.6178 2.19111C39.0533 2.19111 24.6178 2.19111 10.0533 2.19111C9.40889 2.19111 8.63556 2.19111 7.99111 2.19111C7.34667 2.19111 6.83111 2.32 6.18667 2.57778C2.57778 3.73778 1.16 7.73334 2.57778 11.0844C4.12444 14.5644 8.24889 15.8533 11.4711 13.92C11.9867 13.6622 12.3733 13.2756 12.76 13.0178C13.2756 12.6311 14.0489 13.0178 14.1778 13.6622C14.3067 14.3067 14.3067 14.8222 14.3067 15.4667C14.3067 23.7156 14.3067 31.8356 14.3067 40.0844C14.3067 43.0489 14.3067 45.8845 14.3067 48.8489C14.3067 49.2356 14.4356 49.7511 14.5644 50.2667C28.3556 50.2667 42.0178 50.2667 55.68 50.2667ZM2.19111 14.3067C2.19111 15.3378 2.06222 15.8533 2.06222 16.4978C2.06222 27.9689 2.06222 39.3111 2.06222 50.7822C2.06222 51.4267 2.06222 52.0711 2.06222 52.5867C2.44889 54.9067 3.86667 56.5822 6.05778 57.3556C8.24889 58.1289 10.44 58 12.2444 56.4533C12.5022 52.8445 12.3733 17.7867 12.2444 16.1111C10.5689 16.4978 9.02222 17.0133 7.21778 16.7556C5.41333 16.4978 3.86667 15.5956 2.19111 14.3067Z" fill="#7A7979"/>
<path d="M24.4891 42.4043C24.4891 41.5021 24.4891 40.8576 24.4891 40.2132C24.4891 36.6043 24.4891 32.9954 24.4891 29.3865C24.4891 28.871 24.4891 28.3554 24.4891 27.711C24.4891 27.1954 25.0047 26.8087 25.3913 26.8087C25.778 26.8087 26.2936 27.1954 26.4225 27.711C26.4225 28.2265 26.4225 28.7421 26.4225 29.3865C26.4225 32.9954 26.4225 36.6043 26.4225 40.2132C26.4225 40.8576 26.4225 41.5021 26.4225 42.2754C26.8091 42.4043 27.1958 42.5332 27.4536 42.5332C33.6402 42.5332 39.8269 42.5332 46.0136 42.5332C46.2714 42.5332 46.4002 42.4043 46.7869 42.4043C46.9158 42.1465 47.0447 41.7598 47.0447 41.5021C47.0447 37.6354 47.0447 33.7687 47.0447 29.9021C47.0447 29.6443 46.9158 29.3865 46.9158 29.1287C46.2714 28.7421 45.498 28.871 44.8536 28.871C41.3736 28.871 37.7647 28.871 34.2847 28.871C31.9647 28.871 31.8358 28.871 31.8358 26.4221C31.8358 24.8754 31.8358 23.3287 31.8358 21.7821C31.8358 21.2665 31.8358 20.8798 31.7069 20.2354C31.1913 20.1065 30.8047 19.9776 30.2891 19.9776C28.2269 19.9776 26.1647 19.9776 24.2313 19.9776C23.5869 19.9776 22.8136 20.1065 22.0402 19.591C22.0402 19.2043 21.7825 18.6887 21.7825 18.1732C21.7825 16.6265 21.7825 15.0798 21.7825 13.5332C21.7825 13.0176 21.6536 12.5021 21.6536 11.8576C20.8802 11.8576 20.2358 11.7287 19.5913 11.7287C17.9158 11.7287 16.3691 11.7287 14.6936 11.7287C14.0491 11.7287 13.5336 11.2132 13.6625 10.6976C13.6625 10.1821 14.178 9.79539 14.8225 9.6665C15.338 9.6665 15.7247 9.6665 16.2402 9.6665C26.2936 9.6665 36.3469 9.6665 46.4002 9.6665C46.5291 9.6665 46.658 9.6665 46.7869 9.6665C48.978 9.6665 49.1069 9.79539 49.1069 11.9865C49.1069 22.1687 49.1069 32.2221 49.1069 42.4043C49.1069 44.5954 48.978 44.7243 46.7869 44.7243C37.1202 44.7243 27.3247 44.7243 17.658 44.7243C17.1425 44.7243 16.7558 44.7243 16.2402 44.7243C15.7247 44.7243 15.338 44.2087 15.338 43.6932C15.338 43.1776 15.7247 42.791 16.2402 42.791C16.7558 42.791 17.1425 42.791 17.658 42.791C19.3336 42.791 21.0091 42.791 22.8136 42.791C23.3291 42.5332 23.8447 42.4043 24.4891 42.4043ZM46.9158 11.8576C46.658 11.7287 46.5291 11.7287 46.4002 11.7287C42.5336 11.7287 38.6669 11.7287 34.8002 11.7287C34.5425 11.7287 34.2847 11.8576 34.0269 11.9865C34.0269 13.6621 34.0269 15.2087 34.0269 16.8843C34.0269 18.5598 34.0269 20.1065 34.0269 21.7821C34.0269 23.3287 33.898 25.0043 34.1558 26.6798C36.3469 26.9376 38.4091 26.8087 40.4713 26.8087C42.6625 26.8087 44.7247 26.9376 46.9158 26.6798C47.1736 24.7465 47.1736 13.5332 46.9158 11.8576ZM24.3602 17.9154C25.6491 17.9154 26.8091 17.9154 28.098 17.9154C29.3869 17.9154 30.6758 18.1732 31.9647 17.6576C32.0936 15.7243 32.0936 13.7909 31.9647 11.9865C30.418 11.5998 26.1647 11.5998 24.4891 11.9865C23.9736 13.4043 23.9736 15.7243 24.3602 17.9154Z" fill="#7A7979"/>
</g>
<defs>
<clipPath id="clip0_234_633">
<rect width="58" height="59.8045" fill="white"/>
</clipPath>
</defs>
</svg>
